<svg xmlns="http://www.w3.org/2000/svg" width="900" height="560" viewBox="0 0 900 560">
  <defs>
    <linearGradient id="bg" x1="0" y1="0" x2="1" y2="1">
      <stop offset="0" stop-color="#eff6ff"/>
      <stop offset="1" stop-color="#ffffff"/>
    </linearGradient>
    <linearGradient id="machine" x1="0" y1="0" x2="0" y2="1">
      <stop offset="0" stop-color="#ffffff"/>
      <stop offset="1" stop-color="#f8fafc"/>
    </linearGradient>
  </defs>
  <rect width="900" height="560" rx="34" fill="url(#bg)"/>
  <rect x="90" y="54" width="720" height="452" rx="28" fill="url(#machine)" stroke="#dbe3ef" stroke-width="3"/>
  <rect x="150" y="98" width="600" height="110" rx="20" fill="#0a2540"/>
  <text x="450" y="145" text-anchor="middle" font-family="Inter, Arial" font-size="34" font-weight="800" fill="#ffffff"><tspan x="450" dy="0">Borne de recharge T-money</tspan></text>
  <text x="450" y="177" text-anchor="middle" font-family="Inter, Arial" font-size="18" fill="#bfdbfe"><tspan x="450" dy="0">Choisir English • Poser la carte • Ajouter des espèces • Vérifier le solde</tspan></text>
  <rect x="150" y="244" width="260" height="166" rx="18" fill="#e8f0fe" stroke="#bfd7ff" stroke-width="2"/>
  <text x="280" y="294" text-anchor="middle" font-family="Inter, Arial" font-size="28" font-weight="800" fill="#1a56db"><tspan x="280" dy="0">ZONE CARTE</tspan></text>
  <rect x="218" y="320" width="124" height="72" rx="14" fill="#ffffff" stroke="#1a56db" stroke-width="3"/>
  <circle cx="248" cy="356" r="12" fill="#f97316"/>
  <rect x="276" y="344" width="42" height="8" rx="4" fill="#0a2540"/>
  <rect x="276" y="362" width="32" height="8" rx="4" fill="#425466"/>
  <rect x="490" y="244" width="260" height="166" rx="18" fill="#fff7ed" stroke="#fed7aa" stroke-width="2"/>
  <text x="620" y="294" text-anchor="middle" font-family="Inter, Arial" font-size="26" font-weight="800" fill="#c2410c"><tspan x="620" dy="0">FENTE À BILLETS</tspan></text>
  <rect x="552" y="333" width="136" height="30" rx="15" fill="#ffffff" stroke="#f97316" stroke-width="3"/>
  <text x="450" y="446" text-anchor="middle" font-family="Inter, Arial" font-size="20" fill="#425466"><tspan x="450" dy="0">Conseil : si une borne n’accepte pas les cartes étrangères, </tspan><tspan x="450" dy="25">utilisez des espèces ou rechargez dans une supérette.</tspan></text>
</svg>